<?xml version="1.0" encoding="UTF-8"?>
<svg version="1.1" xmlns="http://www.w3.org/2000/svg" width="200" height="167">
<path d="M0 0 C0.13277344 0.84304688 0.26554688 1.68609375 0.40234375 2.5546875 C0.66724609 4.19824219 0.66724609 4.19824219 0.9375 5.875 C1.11152344 6.96554688 1.28554687 8.05609375 1.46484375 9.1796875 C1.85551159 11.93821546 1.85551159 11.93821546 3 14 C5.02463255 14.65213292 5.02463255 14.65213292 7 15 C7.5534764 17.07553648 8 18.84365964 8 21 C11.96 22.98 15.92 24.96 20 27 C16.287098 30.931308 12.37425348 34.04797266 7.9375 37.125 C6.7171898 37.98140315 5.49713102 38.83816469 4.27734375 39.6953125 C3.70701416 40.09186035 3.13668457 40.4884082 2.54907227 40.89697266 C1.25896042 41.81560549 0.01014114 42.79188709 -1.2265625 43.78125 C-4.14507297 45.78692239 -6.55750827 45.3500839 -10 45 C-11.19625 44.484375 -12.3925 43.96875 -13.625 43.4375 C-17.43010629 41.81680658 -18.18865454 41.69882943 -22 43 C-24.578517 44.68603828 -26.93766915 46.60344798 -29.3125 48.5625 C-29.95767578 49.08263672 -30.60285156 49.60277344 -31.26757812 50.13867188 C-32.85164465 51.41765892 -34.42673406 52.70775044 -36 54 C-35.55527344 55.33417969 -35.55527344 55.33417969 -35.1015625 56.6953125 C-34.73804688 57.78585938 -34.37453125 58.87640625 -34 60 C-33.71898437 60.82242188 -33.43796875 61.64484375 -33.1484375 62.4921875 C-28.97861445 75.33861204 -31.688553 87.00869245 -37.5625 98.9375 C-44.18007352 111.82411018 -52.98152308 122.62875981 -63 133 C-63.87398438 133.93714844 -64.74796875 134.87429687 -65.6484375 135.83984375 C-73.79692081 144.35871266 -83.17277505 152.12540522 -94 157 C-94.66 157 -95.32 157 -96 157 C-96.2165625 155.081875 -96.2165625 155.081875 -96.4375 153.125 C-99.14176466 140.92704026 -113.48979159 132.07106542 -123 125 C-123.47308594 125.39268066 -123.94617188 125.78536133 -124.43359375 126.18994141 C-126.62080425 128.00355674 -128.81038588 129.81428749 -131 131.625 C-132.11568359 132.55119141 -132.11568359 132.55119141 -133.25390625 133.49609375 C-133.99511719 134.10839844 -134.73632812 134.72070312 -135.5 135.3515625 C-136.24088867 135.96620361 -136.98177734 136.58084473 -137.74511719 137.21411133 C-139.95713831 138.96605313 -142.24496272 140.52852564 -144.578125 142.11328125 C-147.59401638 144.25289993 -147.59401638 144.25289993 -148.421875 147.81640625 C-148.20015625 148.72261719 -147.9784375 149.62882813 -147.75 150.5625 C-146.88997497 155.76494652 -146.88997497 155.76494652 -148.375 158.9375 C-157.51324726 166.11755142 -168.71687786 167.43211957 -180 167 C-179.29239215 156.85762075 -175.07674544 146.36677599 -168 139 C-164.53001271 136.68667514 -163.07490752 136.66042437 -159 137 C-157.515 137.99 -157.515 137.99 -156 139 C-153.63680662 139.58508685 -153.63680662 139.58508685 -151 139 C-148.75627532 137.40028018 -146.82968205 135.84634185 -144.8125 134 C-143.67029569 132.99232671 -142.52705412 131.98582802 -141.3828125 130.98046875 C-140.53444824 130.22709229 -140.53444824 130.22709229 -139.66894531 129.45849609 C-135.89805586 126.16310499 -131.93288073 123.09836427 -128 120 C-129.2375 118.576875 -129.2375 118.576875 -130.5 117.125 C-131.6687586 115.75177772 -132.83520008 114.37658173 -134 113 C-134.66128906 112.22785156 -135.32257813 111.45570312 -136.00390625 110.66015625 C-144.21136891 100.80185669 -149.41555032 90.71305983 -149.3125 77.6875 C-149.30686035 76.93984375 -149.3012207 76.1921875 -149.29541016 75.421875 C-149.07955418 65.55661566 -146.45584744 57.60711594 -140 50 C-132.74527232 43.12077582 -124.0010123 39.76942911 -114 40 C-104.92759239 41.31280317 -97.37663147 44.33264065 -91 51 C-88.09746017 49.66966925 -85.91042926 48.13990943 -83.5 46.0625 C-76.24011839 40.56707942 -67.49453238 39.24297986 -58.6015625 40.421875 C-51.89418096 41.91240423 -46.63264616 45.16722936 -41 49 C-40.02417969 48.21753906 -39.04835937 47.43507812 -38.04296875 46.62890625 C-36.75798844 45.60654966 -35.47282249 44.58442636 -34.1875 43.5625 C-33.54490234 43.04623047 -32.90230469 42.52996094 -32.24023438 41.99804688 C-31.61826172 41.50498047 -30.99628906 41.01191406 -30.35546875 40.50390625 C-29.78465576 40.04830322 -29.21384277 39.5927002 -28.62573242 39.12329102 C-27 38 -27 38 -24 37 C-24.17917969 35.97519531 -24.35835937 34.95039062 -24.54296875 33.89453125 C-24.7587761 32.53400666 -24.97356636 31.17332047 -25.1875 29.8125 C-25.30802734 29.13896484 -25.42855469 28.46542969 -25.55273438 27.77148438 C-26.01744646 24.69838833 -26.14396501 22.39712381 -25.078125 19.45703125 C-21.96359451 15.77462584 -18.32414028 12.87546873 -14.5625 9.875 C-13.4168457 8.94494141 -13.4168457 8.94494141 -12.24804688 7.99609375 C-10.17482436 6.31802853 -8.09685135 4.64843694 -6 3 C-5.29866943 2.43941895 -4.59733887 1.87883789 -3.87475586 1.30126953 C-2 -0 -2 -0 0 0 Z " fill="#D9000F" transform="translate(180,0)"/>
<path d="M0 0 C0.13277344 0.84304688 0.26554688 1.68609375 0.40234375 2.5546875 C0.66724609 4.19824219 0.66724609 4.19824219 0.9375 5.875 C1.11152344 6.96554688 1.28554687 8.05609375 1.46484375 9.1796875 C1.85551159 11.93821546 1.85551159 11.93821546 3 14 C5.02463255 14.65213292 5.02463255 14.65213292 7 15 C7.5534764 17.07553648 8 18.84365964 8 21 C11.96 22.98 15.92 24.96 20 27 C16.287098 30.931308 12.37425348 34.04797266 7.9375 37.125 C6.7171898 37.98140315 5.49713102 38.83816469 4.27734375 39.6953125 C3.70701416 40.09186035 3.13668457 40.4884082 2.54907227 40.89697266 C1.25896042 41.81560549 0.01014114 42.79188709 -1.2265625 43.78125 C-4.14507297 45.78692239 -6.55750827 45.3500839 -10 45 C-11.19625 44.484375 -12.3925 43.96875 -13.625 43.4375 C-17.42607708 41.81852272 -18.19362117 41.69681752 -22 43 C-24.54506722 44.67794589 -26.85470557 46.60393641 -29.1875 48.5625 C-29.84951416 49.10535645 -30.51152832 49.64821289 -31.19360352 50.20751953 C-32.52190105 51.2968171 -33.84739922 52.38953817 -35.16992188 53.48583984 C-38.34387698 56.11188968 -41.56299876 58.68062858 -44.7890625 61.2421875 C-46.27322431 62.42217481 -47.74714938 63.61514419 -49.2109375 64.8203125 C-49.90445313 65.37460938 -50.59796875 65.92890625 -51.3125 66.5 C-51.90675781 66.9846875 -52.50101562 67.469375 -53.11328125 67.96875 C-55.51683184 69.28249194 -57.30307779 69.18567451 -60 69 C-60 66 -60 66 -58.46875 64.39453125 C-57.49421875 63.61142578 -57.49421875 63.61142578 -56.5 62.8125 C-55.8503125 62.28269531 -55.200625 61.75289062 -54.53125 61.20703125 C-54.0259375 60.80871094 -53.520625 60.41039062 -53 60 C-53.66 59.67 -54.32 59.34 -55 59 C-57.30820117 59.91587057 -59.49074042 60.89513735 -61.71875 61.98046875 C-62.74116035 62.46669205 -62.74116035 62.46669205 -63.78422546 62.96273804 C-66.02624686 64.03063253 -68.26298003 65.10917343 -70.5 66.1875 C-72.82692377 67.29840319 -75.15517572 68.40649057 -77.48344421 69.51457214 C-79.05429463 70.26250624 -80.62469633 71.01138345 -82.19465637 71.76118469 C-90.21965112 75.59232196 -98.29086523 79.31930279 -106.37548828 83.02294922 C-110.86911773 85.08381818 -115.35221559 87.15529093 -119.79296875 89.328125 C-120.49591064 89.66900146 -121.19885254 90.00987793 -121.9230957 90.36108398 C-123.70068181 91.22753215 -125.47180903 92.10719962 -127.2421875 92.98828125 C-130 94 -130 94 -132.1875 93.890625 C-136.40589138 91.81779475 -139.11969356 87.19246132 -140.828125 82.9375 C-143.15130239 74.44130842 -142.1373146 67.63623051 -138 60 C-133.68380937 53.97794093 -128.11148056 50.83522079 -121 49 C-113.52881448 47.89501794 -106.55684336 49.49585468 -100.38671875 53.83984375 C-97.87274102 55.8398527 -95.43233309 57.90191135 -93 60 C-88.47930308 63.79657331 -85.72175441 65.13924356 -79.8125 65.0625 C-78.91144531 65.05347656 -78.01039062 65.04445313 -77.08203125 65.03515625 C-76.39496094 65.02355469 -75.70789063 65.01195313 -75 65 C-76.65 64.01 -78.3 63.02 -80 62 C-78.40594152 55.97800129 -73.83768741 52.6872736 -68.6875 49.625 C-62.64801248 48.22046802 -57.16377552 48.07052593 -51.625 51.0625 C-51.01914063 51.44535156 -50.41328125 51.82820313 -49.7890625 52.22265625 C-48.0343337 53.14614233 -48.0343337 53.14614233 -46.10546875 52.8828125 C-43.18221517 51.65710692 -41.1065768 49.85519992 -38.6875 47.8125 C-37.24117187 46.60207031 -37.24117187 46.60207031 -35.765625 45.3671875 C-33.47485695 43.40644535 -31.20313666 41.42707169 -28.9375 39.4375 C-26 37 -26 37 -24 37 C-24.17917969 35.97519531 -24.35835938 34.95039062 -24.54296875 33.89453125 C-24.7587761 32.53400666 -24.97356636 31.17332047 -25.1875 29.8125 C-25.36829102 28.80219727 -25.36829102 28.80219727 -25.55273438 27.77148438 C-26.01744646 24.69838833 -26.14396501 22.39712381 -25.078125 19.45703125 C-21.96359451 15.77462584 -18.32414028 12.87546873 -14.5625 9.875 C-13.4168457 8.94494141 -13.4168457 8.94494141 -12.24804688 7.99609375 C-10.17482436 6.31802853 -8.09685135 4.64843694 -6 3 C-5.29866943 2.43941895 -4.59733887 1.87883789 -3.87475586 1.30126953 C-2 -0 -2 -0 0 0 Z " fill="#E64025" transform="translate(180,0)"/>
<path d="M0 0 C0.94875 0.9075 1.8975 1.815 2.875 2.75 C5.77753983 1.41966925 7.96457074 -0.11009057 10.375 -2.1875 C17.63121162 -7.68014256 26.38411367 -9.01543938 35.2734375 -7.82421875 C42.32927639 -6.26684891 47.61154764 -3.10857141 52.875 1.75 C51.125 3.8125 51.125 3.8125 48.875 5.75 C46.11303255 5.65475974 44.23033719 4.42766859 41.75 3.1875 C36.53945089 0.93368646 30.99104913 0.70775372 25.59765625 2.51171875 C21.75848294 4.32049128 18.51850313 6.366316 15.875 9.75 C15.0877322 11.8881966 15.0877322 11.8881966 14.875 13.75 C16.855 14.41 18.835 15.07 20.875 15.75 C18.41526222 18.20973778 17.58200615 18.07301675 14.1875 18.125 C5.58925725 17.90326881 1.05620708 13.10704908 -4.98828125 7.5859375 C-10.81516037 2.57929547 -17.18774439 1.34370248 -24.66015625 1.48046875 C-31.23870708 2.19983485 -36.53914425 4.66239006 -41.0625 9.5 C-45.70631274 15.40333742 -47.90832441 21.17786407 -47.125 28.75 C-45.77383656 37.33642575 -41.77827377 43.21796039 -35.125 48.75 C-28.92296073 52.72883571 -22.13552832 55.53726875 -15.125 57.75 C-20.77024422 63.55205656 -20.77024422 63.55205656 -24.125 65.75 C-24.785 65.75 -25.445 65.75 -26.125 65.75 C-25.465 67.4 -24.805 69.05 -24.125 70.75 C-24.785 70.75 -25.445 70.75 -26.125 70.75 C-26.785 70.09 -27.445 69.43 -28.125 68.75 C-29.775 69.74 -31.425 70.73 -33.125 71.75 C-44.32098573 61.50686412 -54.45963521 49.28578748 -55.4609375 33.5703125 C-55.8944017 21.49733432 -54.16772936 11.22698584 -46.125 1.75 C-33.31040318 -10.40131541 -13.66809232 -11.63300413 0 0 Z " fill="#B70105" transform="translate(86.125,48.25)"/>
<path d="M0 0 C0.19916016 1.26457031 0.19916016 1.26457031 0.40234375 2.5546875 C0.57894531 3.65039062 0.75554687 4.74609375 0.9375 5.875 C1.11152344 6.96554688 1.28554687 8.05609375 1.46484375 9.1796875 C1.85551159 11.93821546 1.85551159 11.93821546 3 14 C5.02463255 14.65213292 5.02463255 14.65213292 7 15 C7.5534764 17.07553648 8 18.84365964 8 21 C11.96 22.98 15.92 24.96 20 27 C16.287098 30.931308 12.37425348 34.04797266 7.9375 37.125 C6.7171898 37.98140315 5.49713102 38.83816469 4.27734375 39.6953125 C3.70701416 40.09186035 3.13668457 40.4884082 2.54907227 40.89697266 C1.25896042 41.81560549 0.01014114 42.79188709 -1.2265625 43.78125 C-4.14507297 45.78692239 -6.55750827 45.3500839 -10 45 C-11.19625 44.484375 -12.3925 43.96875 -13.625 43.4375 C-17.39690557 41.83094763 -18.22183962 41.72411469 -22 43 C-24.22505493 44.6331959 -26.2548717 46.24488666 -28.3125 48.0625 C-29.13717773 48.77116211 -29.13717773 48.77116211 -29.97851562 49.49414062 C-31.3262696 50.654381 -32.66415117 51.82607224 -34 53 C-34.66 52.67 -35.32 52.34 -36 52 C-39.00259517 51.66781808 -39.00259517 51.66781808 -40.6875 53.5 C-41.120625 53.995 -41.55375 54.49 -42 55 C-42.66 54.67 -43.32 54.34 -44 54 C-41.5838567 49.13218188 -38.22808806 46.46438662 -34 43.25 C-33.3709375 42.75628906 -32.741875 42.26257812 -32.09375 41.75390625 C-29.42659978 39.69138542 -27.22068886 38.07356295 -24 37 C-24.17917969 35.97519531 -24.35835937 34.95039062 -24.54296875 33.89453125 C-24.7587761 32.53400666 -24.97356636 31.17332047 -25.1875 29.8125 C-25.30802734 29.13896484 -25.42855469 28.46542969 -25.55273438 27.77148438 C-26.01744646 24.69838833 -26.14396501 22.39712381 -25.078125 19.45703125 C-21.96359451 15.77462584 -18.32414028 12.87546873 -14.5625 9.875 C-13.79873047 9.25496094 -13.03496094 8.63492187 -12.24804688 7.99609375 C-10.17482436 6.31802853 -8.09685135 4.64843694 -6 3 C-5.29866943 2.43941895 -4.59733887 1.87883789 -3.87475586 1.30126953 C-2 0 -2 0 0 0 Z " fill="#DDAD3B" transform="translate(180,0)"/>
<path d="M0 0 C0.66 0.33 1.32 0.66 2 1 C2 1.66 2 2.32 2 3 C2.66 3.33 3.32 3.66 4 4 C-0.31624202 8.62454502 -4.9017491 12.61421205 -9.875 16.5 C-10.48045654 16.97864502 -11.08591309 17.45729004 -11.7097168 17.95043945 C-14.39821723 20.0575449 -17.05755065 22.03668567 -19.94140625 23.875 C-22.36777514 25.45460792 -24.24745702 26.69200624 -26 29 C-26.19862978 31.97944669 -25.82663951 34.54487613 -25.30859375 37.48046875 C-25 40 -25 40 -26.375 42.9375 C-35.51324726 50.11755142 -46.71687786 51.43211957 -58 51 C-57.29239215 40.85762075 -53.07674544 30.36677599 -46 23 C-42.53001271 20.68667514 -41.07490752 20.66042437 -37 21 C-36.01 21.66 -35.02 22.32 -34 23 C-31.62862504 23.57444448 -31.62862504 23.57444448 -29 23 C-26.81918246 21.44142659 -24.95697785 19.92672387 -23 18.125 C-21.85901487 17.11594644 -20.71571701 16.10950294 -19.5703125 15.10546875 C-18.98540039 14.59032715 -18.40048828 14.07518555 -17.79785156 13.54443359 C-14.90948839 11.06320255 -11.90264278 8.74521749 -8.875 6.4375 C-8.33101562 6.02064941 -7.78703125 5.60379883 -7.2265625 5.17431641 C-4.85908471 3.3710576 -2.47740765 1.6516051 0 0 Z " fill="#D9A93B" transform="translate(58,116)"/>
<path d="M0 0 C2.88369924 1.75905654 5.65905096 3.55061463 8 6 C8 6.99 8 7.98 8 9 C3.00199073 11.36775961 -1.99681225 13.73383255 -6.99633789 16.09838867 C-8.69479599 16.90196893 -10.39304146 17.70599879 -12.09106445 18.51049805 C-14.54061159 19.67096112 -16.99093473 20.82977163 -19.44140625 21.98828125 C-20.19273331 22.34465164 -20.94406036 22.70102203 -21.71815491 23.06819153 C-23.80782585 24.05504755 -25.90161738 25.03181694 -28 26 C-28.65435028 26.30231537 -29.30870056 26.60463074 -29.98287964 26.91610718 C-32.84184625 28.19587341 -34.8296058 29 -38 29 C-40.12325505 22.36482796 -39.03384013 16.65990177 -36.31640625 10.4296875 C-32.71009915 3.77353612 -27.61632755 0.13888123 -20.54296875 -2.34375 C-13.33555573 -4.20372755 -6.68811709 -3.17921059 0 0 Z " fill="#EE7C54" transform="translate(77,52)"/>
<path d="M0 0 C-1.1446875 1.11375 -1.1446875 1.11375 -2.3125 2.25 C-4.4393702 4.4263323 -6.2559956 6.52167796 -8 9 C-6.68 9.66 -5.36 10.32 -4 11 C-7.63 13.64 -11.26 16.28 -15 19 C-16.32 18.01 -17.64 17.02 -19 16 C-18.34 15.01 -17.68 14.02 -17 13 C-17.92522461 13.43755615 -18.85044922 13.8751123 -19.80371094 14.32592773 C-52.03904337 29.56411838 -52.03904337 29.56411838 -67.4296875 36.3984375 C-69.98963662 37.54677354 -72.51038071 38.70956906 -75 40 C-76.65 38.35 -78.3 36.7 -80 35 C-63.49237541 26.98613545 -46.92751162 19.12790241 -30.24023438 11.49365234 C-26.86467174 9.93761767 -23.50190369 8.3561655 -20.140625 6.76953125 C-19.03614014 6.25213379 -17.93165527 5.73473633 -16.79370117 5.20166016 C-14.68352526 4.21281913 -12.57673646 3.21670849 -10.47387695 2.21240234 C-9.53503662 1.77492676 -8.59619629 1.33745117 -7.62890625 0.88671875 C-6.80463135 0.49701904 -5.98035645 0.10731934 -5.13110352 -0.29418945 C-3 -1 -3 -1 0 0 Z " fill="#E72C1E" transform="translate(128,59)"/>
<path d="M0 0 C3 1 3 1 4.1328125 2.890625 C9.19606486 14.93079989 9.00186088 25.63640724 4.25146484 37.93847656 C2.47819776 42.14154548 0.64174939 46.2692029 -2 50 C-4.19140625 50.86328125 -4.19140625 50.86328125 -7 51 C-7.62455078 51.03947754 -8.24910156 51.07895508 -8.89257812 51.11962891 C-11.1152922 51.25276557 -13.33769072 51.34633458 -15.5625 51.4375 C-22.82465675 51.77955275 -29.86229482 52.55846346 -37 54 C-34.00977693 51.57586362 -31.06967231 50.02147271 -27.53515625 48.51171875 C-26.48779297 48.05216797 -25.44042969 47.59261719 -24.36132812 47.11914062 C-22.16965999 46.16799039 -19.97433978 45.22520971 -17.77539062 44.29101562 C-9.77041534 40.75347584 -5.08670732 37.58715047 -1.6875 29.25 C0.80050599 22.51417889 1.12102334 16.33380835 -1.5625 9.625 C-3.25963656 5.34526432 -3.25963656 5.34526432 -2 2 C-1.34 1.34 -0.68 0.68 0 0 Z " fill="#B70005" transform="translate(141,55)"/>
<path d="M0 0 C0.804375 0.7425 1.60875 1.485 2.4375 2.25 C0.6875 4.3125 0.6875 4.3125 -1.5625 6.25 C-4.32446745 6.15475974 -6.20716281 4.92766859 -8.6875 3.6875 C-13.89804911 1.43368646 -19.44645087 1.20775372 -24.83984375 3.01171875 C-28.65247434 4.80798605 -32.03511432 6.81275548 -34.5625 10.25 C-35.36565654 13.39481791 -35.36565654 13.39481791 -35.5625 16.25 C-39.00678265 14.80218207 -40.92380962 12.97305391 -43.3125 10.125 C-43.92609375 9.40054688 -44.5396875 8.67609375 -45.171875 7.9296875 C-45.63078125 7.37539063 -46.0896875 6.82109375 -46.5625 6.25 C-43.97948286 0.4444809 -39.37750772 -3.26113421 -33.5 -5.5625 C-21.68249154 -9.373872 -9.73961016 -8.01014668 0 0 Z " fill="#B80106" transform="translate(136.5625,47.75)"/>
<path d="M0 0 C2.64 1.98 5.28 3.96 8 6 C4.90656186 9.09343814 2.61088513 10.29997878 -1.328125 12.109375 C-2.2672171 12.54422211 -2.2672171 12.54422211 -3.22528076 12.987854 C-5.2307158 13.91480153 -7.24018989 14.83258307 -9.25 15.75 C-11.2071981 16.65130285 -13.16353868 17.55444558 -15.11975098 18.45788574 C-16.4255674 19.05898618 -17.73278525 19.65705146 -19.04138184 20.2520752 C-22.45455907 21.80666895 -25.83586653 23.40426473 -29.18945312 25.08398438 C-29.86804382 25.41803284 -30.54663452 25.7520813 -31.24578857 26.09625244 C-32.54233832 26.7364291 -33.8328534 27.38902161 -35.11602783 28.05560303 C-39.41200268 30.15599929 -39.41200268 30.15599929 -42.34472656 29.37792969 C-44.78948092 27.34279789 -45.21485685 25.00971539 -46 22 C-45.00226562 21.56171875 -44.00453125 21.1234375 -42.9765625 20.671875 C-35.65122778 17.44010968 -28.34663807 14.17198974 -21.0859375 10.796875 C-19.91337402 10.25192383 -18.74081055 9.70697266 -17.53271484 9.14550781 C-15.19033538 8.05444786 -12.84949314 6.96008115 -10.51025391 5.86230469 C-9.43437012 5.36118164 -8.35848633 4.86005859 -7.25 4.34375 C-6.28578125 3.89193359 -5.3215625 3.44011719 -4.328125 2.97460938 C-2 2 -2 2 0 2 C0 1.34 0 0.68 0 0 Z " fill="#EB633E" transform="translate(85,59)"/>
<path d="M0 0 C0.19916016 1.26457031 0.19916016 1.26457031 0.40234375 2.5546875 C0.57894531 3.65039062 0.75554687 4.74609375 0.9375 5.875 C1.11152344 6.96554688 1.28554687 8.05609375 1.46484375 9.1796875 C1.85551159 11.93821546 1.85551159 11.93821546 3 14 C5.02463255 14.65213292 5.02463255 14.65213292 7 15 C7.5534764 17.07553648 8 18.84365964 8 21 C10.64 22.32 13.28 23.64 16 25 C10.50329797 26.83223401 4.83367709 28.37636626 -1 28 C-1.33 27.01 -1.66 26.02 -2 25 C-2.54527344 25.49628906 -3.09054688 25.99257813 -3.65234375 26.50390625 C-8.92524885 31.2540276 -14.34055321 35.71862182 -20 40 C-20.66 39.67 -21.32 39.34 -22 39 C-18.48451346 33.95604105 -13.88263123 30.62024153 -9 27 C-9.33 26.67 -9.66 26.34 -10 26 C-10.45459858 23.34536879 -10.70243238 20.67810862 -11 18 C-12.65 18 -14.3 18 -16 18 C-16.52180973 14.45169382 -16.09609412 13.14259128 -14.0625 10.125 C-4.88671875 -0 -4.88671875 -0 0 0 Z " fill="#D6A736" transform="translate(180,0)"/>
<path d="M0 0 C0.66 0.33 1.32 0.66 2 1 C1.31292969 1.61488281 0.62585937 2.22976562 -0.08203125 2.86328125 C-1.43361328 4.07564453 -1.43361328 4.07564453 -2.8125 5.3125 C-3.70582031 6.11300781 -4.59914062 6.91351563 -5.51953125 7.73828125 C-7.39926786 9.45224581 -9.22592747 11.17877604 -11 13 C-10.649375 13.845625 -10.29875 14.69125 -9.9375 15.5625 C-8.82741211 19.63282225 -8.82079649 21.94648793 -10 26 C-14.1883234 30.17563151 -17.95393669 32.03281361 -23.75 33.3125 C-24.44867187 33.47782227 -25.14734375 33.64314453 -25.8671875 33.81347656 C-31.27259454 35.01772546 -36.46340261 35.47912862 -42 35 C-40.87078125 33.9790625 -40.87078125 33.9790625 -39.71875 32.9375 C-36.77851696 29.99726696 -35.22927363 26.7848253 -33.5 23 C-31.25763906 18.09219115 -29.17233568 14.49113802 -25 11 C-21.6875 10.6875 -21.6875 10.6875 -19 11 C-18.6875 13.6875 -18.6875 13.6875 -19 17 C-21.125 19.5625 -21.125 19.5625 -24 22 C-24.52722656 22.46921875 -25.05445312 22.9384375 -25.59765625 23.421875 C-29.68837781 27 -29.68837781 27 -32 27 C-32 27.66 -32 28.32 -32 29 C-30.08034691 28.40539047 -28.16436921 27.79890739 -26.25 27.1875 C-25.18265625 26.85105469 -24.1153125 26.51460937 -23.015625 26.16796875 C-20.17547521 25.06796255 -18.2265127 24.05847401 -16 22 C-15.1957792 19.40144267 -15.1957792 19.40144267 -15 17 C-15.66 16.67 -16.32 16.34 -17 16 C-16.34 15.67 -15.68 15.34 -15 15 C-14.85369141 14.37182373 -14.70738281 13.74364746 -14.55664062 13.09643555 C-13.61013807 9.53169104 -10.3653992 7.88398286 -7.5 5.8125 C-6.30188089 4.92344983 -5.10395431 4.03414013 -3.90625 3.14453125 C-2.46765625 2.08298828 -2.46765625 2.08298828 -1 1 C-0.67 0.67 -0.34 0.34 0 0 Z " fill="#CB982F" transform="translate(42,132)"/>
<path d="M0 0 C2.79354551 1.25948312 4.97657819 0.67968279 7.828125 -0.17578125 C7.828125 0.48421875 7.828125 1.14421875 7.828125 1.82421875 C8.59125 1.14359375 9.354375 0.46296875 10.140625 -0.23828125 C11.0275 -0.87765625 11.914375 -1.51703125 12.828125 -2.17578125 C13.818125 -1.84578125 14.808125 -1.51578125 15.828125 -1.17578125 C12.13137296 2.62481214 8.26343478 6.10495198 4.203125 9.51171875 C3.34460938 10.2397168 3.34460938 10.2397168 2.46875 10.98242188 C-4.80495298 17.11432264 -4.80495298 17.11432264 -10.171875 16.82421875 C-10.171875 13.82421875 -10.171875 13.82421875 -8.203125 11.78125 C-7.3678125 11.07355469 -6.5325 10.36585937 -5.671875 9.63671875 C-4.8365625 8.92128906 -4.00125 8.20585938 -3.140625 7.46875 C-2.4909375 6.92605469 -1.84125 6.38335937 -1.171875 5.82421875 C-4.24553554 4.02142188 -4.24553554 4.02142188 -7.734375 4.38671875 C-9.76324604 5.23515573 -11.77904186 6.11863047 -13.7578125 7.078125 C-19.1946229 9.6922626 -23.10993968 11.49776712 -29.171875 10.82421875 C-29.501875 10.16421875 -29.831875 9.50421875 -30.171875 8.82421875 C-27.77929932 3.61684816 -23.81021821 0.36325229 -18.921875 -2.48828125 C-11.78008747 -4.27372813 -6.3241689 -3.66339052 0 0 Z " fill="#E94F2E" transform="translate(130.171875,52.17578125)"/>
<path d="M0 0 C0.495 1.485 0.495 1.485 1 3 C0.15236084 3.3853894 0.15236084 3.3853894 -0.71240234 3.77856445 C-3.27073478 4.94773448 -5.82283807 6.12992497 -8.375 7.3125 C-9.26445313 7.71662109 -10.15390625 8.12074219 -11.0703125 8.53710938 C-12.34648438 9.13168945 -12.34648438 9.13168945 -13.6484375 9.73828125 C-14.43395996 10.09962158 -15.21948242 10.46096191 -16.02880859 10.83325195 C-18.30536088 11.98843744 -18.30536088 11.98843744 -20 15 C-22.33044733 16.19949495 -24.58747245 17.25204684 -27 18.25 C-27.64195313 18.53101562 -28.28390625 18.81203125 -28.9453125 19.1015625 C-30.6031681 19.80216256 -32.30019514 20.40840125 -34 21 C-34.66 20.67 -35.32 20.34 -36 20 C-35.42641265 12.83015815 -32.95123041 8.63373184 -27.75 3.8125 C-19.56296949 -2.82422048 -9.73776074 -3.85453029 0 0 Z " fill="#F09570" transform="translate(75,51)"/>
<path d="M0 0 C5.62142475 3.69407912 6.29030393 6.32254708 10 13 C17.59 13 25.18 13 33 13 C29.49798138 16.50201862 26.49909958 19.27724712 22.5625 22.125 C21.65628906 22.78757813 20.75007813 23.45015625 19.81640625 24.1328125 C12.4748954 29 12.4748954 29 9 29 C8.855625 27.72125 8.71125 26.4425 8.5625 25.125 C7.1440986 18.57136435 2.63210679 14.57677446 -2 10 C-2.75539063 9.24332031 -3.51078125 8.48664063 -4.2890625 7.70703125 C-4.85367188 7.14371094 -5.41828125 6.58039063 -6 6 C-4.02 4.02 -2.04 2.04 0 0 Z " fill="#ED6A45" transform="translate(75,128)"/>
<path d="M0 0 C5.2768612 1.87332004 10.33140843 3.88760562 15 7 C13.33784732 8.33895632 11.67036393 9.67130142 10 11 C9.278125 11.5775 8.55625 12.155 7.8125 12.75 C6 14 6 14 4 14 C4.66 15.65 5.32 17.3 6 19 C5.34 19 4.68 19 4 19 C3.34 18.34 2.68 17.68 2 17 C0.35 17.99 -1.3 18.98 -3 20 C-4.46761013 18.61392377 -5.92374189 17.21568805 -7.375 15.8125 C-8.18710937 15.03519531 -8.99921875 14.25789063 -9.8359375 13.45703125 C-11.98859852 11.012945 -13.00632706 9.07383443 -14 6 C-9.54776885 1.45304053 -6.66179338 -1.201307 0 0 Z " fill="#C6010A" transform="translate(56,100)"/>
<path d="M0 0 C-1.375 2 -1.375 2 -3 4 C-3.66 4 -4.32 4 -5 4 C-5 4.66 -5 5.32 -5 6 C-3.02 6 -1.04 6 1 6 C-1.36292656 8.52588702 -2.66462511 9.88820837 -6 11 C-6.99 10.01 -7.98 9.02 -9 8 C-8.34 7.01 -7.68 6.02 -7 5 C-7.92522461 5.43755615 -8.85044922 5.8751123 -9.80371094 6.32592773 C-42.03904337 21.56411838 -42.03904337 21.56411838 -57.4296875 28.3984375 C-59.98963662 29.54677354 -62.51038071 30.70956906 -65 32 C-65.99 31.01 -66.98 30.02 -68 29 C-66.80568359 28.46560303 -65.61136719 27.93120605 -64.38085938 27.38061523 C-52.61377698 22.10589434 -40.88968611 16.74397797 -29.19384766 11.31323242 C-26.44626207 10.0375499 -23.69779466 8.76378157 -20.94921875 7.49023438 C-19.18484531 6.67198393 -17.42052046 5.85362871 -15.65625 5.03515625 C-14.84281128 4.6581105 -14.02937256 4.28106476 -13.19128418 3.89259338 C-12.05729187 3.36580238 -12.05729187 3.36580238 -10.90039062 2.82836914 C-10.24123657 2.52242325 -9.58208252 2.21647736 -8.9029541 1.90126038 C-6.94771709 1.00529216 -6.94771709 1.00529216 -4.94372559 -0.17677307 C-3 -1 -3 -1 0 0 Z " fill="#E61718" transform="translate(118,67)"/>
<path d="M0 0 C-0.71514614 3.94654722 -1.49917167 6.78464929 -4 10 C-8.39953954 11.30080548 -13.00784447 11.25086509 -17.5625 11.4375 C-24.82465675 11.77955275 -31.86229482 12.55846346 -39 14 C-34.25299119 10.21944807 -28.90204928 7.88385743 -23.4375 5.3125 C-22.40302734 4.80138672 -21.36855469 4.29027344 -20.30273438 3.76367188 C-13.29828229 0.47855315 -7.72338329 -0.73259618 0 0 Z " fill="#C50009" transform="translate(143,95)"/>
<path d="M0 0 C2.8125 1.125 2.8125 1.125 5 3 C5.8125 6.1875 5.8125 6.1875 6 9 C4.68 9.33 3.36 9.66 2 10 C2 8.68 2 7.36 2 6 C-2.81171826 6.94347417 -5.676342 7.86634761 -8.74609375 11.94921875 C-10.9704603 15.58720143 -12.77256065 19.43023166 -14.5703125 23.29296875 C-15.85515198 25.72573859 -16.85257639 27.31108035 -19 29 C-19.66 29 -20.32 29 -21 29 C-19.04837124 18.35475223 -15.76207073 8.76207073 -8 1 C-5.17998673 -0.41000664 -3.12992745 -0.24548451 0 0 Z " fill="#E0B958" transform="translate(21,137)"/>
<path d="M0 0 C2.00720923 0.28674418 4.0085944 0.61866701 6 1 C4.60347233 3.79305533 2.96073361 4.11627867 0.12890625 5.3984375 C-0.9089502 5.87249023 -1.94680664 6.34654297 -3.01611328 6.83496094 C-4.1451709 7.34317383 -5.27422852 7.85138672 -6.4375 8.375 C-8.79826383 9.45033041 -11.15893817 10.52585731 -13.51953125 11.6015625 C-14.75728602 12.16317014 -15.99507942 12.72469264 -17.23291016 13.28613281 C-23.37759586 16.07701302 -29.49965198 18.91699983 -35.625 21.75 C-37.8254296 22.76582266 -40.02594198 23.78146601 -42.2265625 24.796875 C-43.15033691 25.22323242 -44.07411133 25.64958984 -45.02587891 26.08886719 C-46.00306885 26.53987793 -46.00306885 26.53987793 -47 27 C-47.99 26.01 -48.98 25.02 -50 24 C-45.96048685 22.03720973 -41.91864902 20.07925366 -37.875 18.125 C-37.27085266 17.83298706 -36.66670532 17.54097412 -36.04425049 17.2401123 C-26.60487741 12.68317358 -17.1136603 8.25980328 -7.54248047 3.98486328 C-6.69057129 3.60313965 -5.83866211 3.22141602 -4.9609375 2.828125 C-4.21634277 2.4971582 -3.47174805 2.16619141 -2.70458984 1.82519531 C-1.01103909 1.12048703 -1.01103909 1.12048703 0 0 Z " fill="#E94F2D" transform="translate(93,65)"/>
<path d="M0 0 C1.67542976 0.28604898 3.34385343 0.61781233 5 1 C3.70207807 3.89536431 2.45153506 5.96646861 0 8 C-7.59855381 9.95561994 -16.22610572 9.10081419 -24 9 C-24.99 7.02 -25.98 5.04 -27 3 C-20.67460608 1.74121514 -14.3293112 1.63800548 -7.90429688 1.39453125 C-7.03224609 1.35714844 -6.16019531 1.31976563 -5.26171875 1.28125 C-4.46725342 1.25095703 -3.67278809 1.22066406 -2.85424805 1.18945312 C-0.98518135 1.19570532 -0.98518135 1.19570532 0 0 Z " fill="#E61B19" transform="translate(109,133)"/>
<path d="M0 0 C0.66 0.33 1.32 0.66 2 1 C1.31292969 1.61488281 0.62585938 2.22976562 -0.08203125 2.86328125 C-1.43361328 4.07564453 -1.43361328 4.07564453 -2.8125 5.3125 C-3.70582031 6.11300781 -4.59914063 6.91351563 -5.51953125 7.73828125 C-7.39926786 9.45224581 -9.22592747 11.17877604 -11 13 C-10.649375 13.845625 -10.29875 14.69125 -9.9375 15.5625 C-8.82741211 19.63282225 -8.82079649 21.94648793 -10 26 C-14.77769767 31.68158641 -20.93399409 32.59365902 -28 34 C-26.35 32.02 -24.7 30.04 -23 28 C-23.66 27.67 -24.32 27.34 -25 27 C-24.44570313 26.78085938 -23.89140625 26.56171875 -23.3203125 26.3359375 C-18.35136465 24.2212507 -18.35136465 24.2212507 -15.5 19.75 C-15.335 18.8425 -15.17 17.935 -15 17 C-15.66 16.67 -16.32 16.34 -17 16 C-16.34 15.67 -15.68 15.34 -15 15 C-14.85369141 14.37182373 -14.70738281 13.74364746 -14.55664062 13.09643555 C-13.61013807 9.53169104 -10.3653992 7.88398286 -7.5 5.8125 C-6.30188089 4.92344983 -5.10395431 4.03414013 -3.90625 3.14453125 C-2.9471875 2.43683594 -1.988125 1.72914063 -1 1 C-0.67 0.67 -0.34 0.34 0 0 Z " fill="#BB7610" transform="translate(42,132)"/>
<path d="M0 0 C-1.95319645 1.05798141 -3.85668772 1.95468386 -5.9765625 2.625 C-10.40833442 3.87234581 -10.40833442 3.87234581 -13.1875 7.25 C-13.455625 8.1575 -13.72375 9.065 -14 10 C-15.26318948 11.80745761 -16.60018626 13.53144697 -17.9765625 15.25390625 C-19.33711331 17.2378307 -19.33711331 17.2378307 -19 21 C-18.34 21.33 -17.68 21.66 -17 22 C-17 22.66 -17 23.32 -17 24 C-20.44428265 22.55218207 -22.36130962 20.72305391 -24.75 17.875 C-25.36359375 17.15054688 -25.9771875 16.42609375 -26.609375 15.6796875 C-27.06828125 15.12539063 -27.5271875 14.57109375 -28 14 C-25.41698286 8.1944809 -20.81500772 4.48886579 -14.9375 2.1875 C-9.97601197 0.55921242 -5.22484804 -0.153672 0 0 Z " fill="#D4010E" transform="translate(118,40)"/>
<path d="M0 0 C0.66 0.33 1.32 0.66 2 1 C1.67 2.32 1.34 3.64 1 5 C5.455 7.475 5.455 7.475 10 10 C4.50329797 11.83223401 -1.16632291 13.37636626 -7 13 C-7.33 12.01 -7.66 11.02 -8 10 C-8.54527344 10.49628906 -9.09054688 10.99257813 -9.65234375 11.50390625 C-14.92524885 16.2540276 -20.34055321 20.71862182 -26 25 C-26.66 24.67 -27.32 24.34 -28 24 C-24.59301304 19.17268603 -20.38261534 16.03209691 -15.6875 12.5625 C-10.29128688 8.54021296 -5.06458234 4.43569101 0 0 Z " fill="#BD7A13" transform="translate(186,15)"/>
<path d="M0 0 C-1.38241256 4.14723768 -4.27451406 5.78680526 -7.6875 8.25 C-8.30044922 8.72179688 -8.91339844 9.19359375 -9.54492188 9.6796875 C-12.85158504 12.07815792 -14.25002859 13.04406612 -18.45703125 12.796875 C-19.29621094 12.53390625 -20.13539063 12.2709375 -21 12 C-21 11.34 -21 10.68 -21 10 C-23.475 9.01 -23.475 9.01 -26 8 C-23.66785852 6.79371992 -21.50357861 5.8345262 -19 5 C-18.34 5.33 -17.68 5.66 -17 6 C-17 5.34 -17 4.68 -17 4 C-14.09399739 2.74335022 -12.20395416 2 -9 2 C-9 1.34 -9 0.68 -9 0 C-5.67465243 -1.10844919 -3.37817425 -0.84454356 0 0 Z " fill="#EFC245" transform="translate(192,32)"/>
<path d="M0 0 C0.66 0.66 1.32 1.32 2 2 C-1.76309138 3.87019365 -5.53658825 5.7183456 -9.3125 7.5625 C-10.38435547 8.09552734 -11.45621094 8.62855469 -12.56054688 9.17773438 C-13.58857422 9.67724609 -14.61660156 10.17675781 -15.67578125 10.69140625 C-16.62364502 11.15748291 -17.57150879 11.62355957 -18.5480957 12.10375977 C-21 13 -21 13 -24 12 C-21.34817225 6.84366827 -17.74094775 3.59888619 -12.75 0.6875 C-8.56416229 -0.35895943 -4.2864778 -0.51589467 0 0 Z " fill="#EA5D38" transform="translate(124,49)"/>
<path d="M0 0 C-8.07320099 8.29745658 -8.07320099 8.29745658 -15.25 8.6875 C-16.32765625 8.75324219 -17.4053125 8.81898438 -18.515625 8.88671875 C-19.74539062 8.94279297 -19.74539062 8.94279297 -21 9 C-21.66 6.36 -22.32 3.72 -23 1 C-15.3164908 0.38794237 -7.70947565 -0.13292199 0 0 Z " fill="#E84125" transform="translate(108,141)"/>
<path d="M0 0 C1.32 0.66 2.64 1.32 4 2 C4 2.66 4 3.32 4 4 C-1.35581064 6.54736385 -6.71268323 9.09247568 -12.07055664 11.63549805 C-13.89344241 12.5010888 -15.71603541 13.36729638 -17.53833008 14.23413086 C-20.15629755 15.47932257 -22.77530665 16.72229898 -25.39453125 17.96484375 C-26.21025101 18.35341049 -27.02597076 18.74197723 -27.8664093 19.14231873 C-28.62697128 19.50261673 -29.38753326 19.86291473 -30.17114258 20.23413086 C-30.83954666 20.55167831 -31.50795074 20.86922577 -32.1966095 21.19639587 C-34 22 -34 22 -37 23 C-36.67 21.35 -36.34 19.7 -36 18 C-35.34 18.33 -34.68 18.66 -34 19 C-31.6248967 17.9991947 -31.6248967 17.9991947 -29.0625 16.5625 C-24.32152589 14 -24.32152589 14 -21 14 C-20.74927734 13.38415039 -20.49855469 12.76830078 -20.24023438 12.13378906 C-18.78182721 9.62463973 -17.76550216 9.04928186 -15.15625 7.859375 C-14.40472656 7.51132812 -13.65320313 7.16328125 -12.87890625 6.8046875 C-12.09386719 6.45664062 -11.30882813 6.10859375 -10.5 5.75 C-9.71496094 5.38648438 -8.92992188 5.02296875 -8.12109375 4.6484375 C-2.31643562 2 -2.31643562 2 0 2 C0 1.34 0 0.68 0 0 Z " fill="#F08C66" transform="translate(76,52)"/>
<path d="M0 0 C0.33848652 1.89492006 0.67056911 3.79098466 1 5.6875 C1.185625 6.74324219 1.37125 7.79898437 1.5625 8.88671875 C1.95068074 11.64904062 2.08259976 14.21742043 2 17 C1.67 15.68 1.34 14.36 1 13 C-1.47266765 13.34444881 -1.47266765 13.34444881 -4 14 C-4.33 14.66 -4.66 15.32 -5 16 C-6.32 16 -7.64 16 -9 16 C-10.46835443 8.78059072 -10.46835443 8.78059072 -8.3125 5.1875 C-2.82857143 0 -2.82857143 0 0 0 Z " fill="#C7942A" transform="translate(180,0)"/>
<path d="M0 0 C-2.32217745 2.62375894 -4.56151082 3.84389608 -7.75 5.25 C-12.86757403 7.71540063 -16.2513296 10.80387557 -20 15 C-20.99424309 16.00572396 -21.99250968 17.00754685 -23 18 C-22.8635441 12.541764 -20.61389128 9.66452198 -17.02734375 5.8359375 C-11.8121604 1.11313177 -6.95901742 -0.57991812 0 0 Z " fill="#FBDECE" transform="translate(65,52)"/>
<path d="M0 0 C0.99 0.66 1.98 1.32 3 2 C2.67 2.66 2.34 3.32 2 4 C-1.0625 4.625 -1.0625 4.625 -4 5 C-4 4.67 -4 4.34 -4 4 C-10.14057578 4.27291448 -14.03880446 5.07719422 -19 9 C-19.78375 9.5775 -20.5675 10.155 -21.375 10.75 C-22.179375 11.36875 -22.179375 11.36875 -23 12 C-23 8 -23 8 -20.5 5.4375 C-14.43252673 0.83360928 -7.60124639 -1.15442993 0 0 Z " fill="#F4AD8E" transform="translate(68,49)"/>
<path d="M0 0 C0.33 0 0.66 0 1 0 C1 2.64 1 5.28 1 8 C1.66 8.33 2.32 8.66 3 9 C0.36 11.31 -2.28 13.62 -5 16 C-5.66 15.67 -6.32 15.34 -7 15 C-7.66 15 -8.32 15 -9 15 C-8.125 10.125 -8.125 10.125 -7 9 C-6.76924918 7.65252916 -6.58846937 6.29622435 -6.4375 4.9375 C-6.2209375 2.9884375 -6.2209375 2.9884375 -6 1 C-5.34 1.33 -4.68 1.66 -4 2 C-4 3.32 -4 4.64 -4 6 C-2.68 6 -1.36 6 0 6 C0 4.02 0 2.04 0 0 Z " fill="#F3C951" transform="translate(169,18)"/>
<path d="M0 0 C3.24299151 2.38957269 5.50902342 4.2047869 7 8 C5.35 9.32 3.7 10.64 2 12 C-1.36591866 10.55746343 -3.51047079 8.66735273 -6 6 C-4.02 4.02 -2.04 2.04 0 0 Z " fill="#E94F2D" transform="translate(75,128)"/>
<path d="M0 0 C0.12181641 0.92039062 0.12181641 0.92039062 0.24609375 1.859375 C0.81193356 4.13830628 0.81193356 4.13830628 2.84765625 5.265625 C3.57855469 5.59046875 4.30945313 5.9153125 5.0625 6.25 C5.79597656 6.58515625 6.52945313 6.9203125 7.28515625 7.265625 C8.13400391 7.62914062 8.13400391 7.62914062 9 8 C3.50329797 9.83223401 -2.16632291 11.37636626 -8 11 C-8 6.67750434 -5.85084926 5.11604454 -3 2 C-2.01 1.34 -1.02 0.68 0 0 Z " fill="#C39026" transform="translate(187,17)"/>
<path d="M0 0 C0.33 0.66 0.66 1.32 1 2 C1.66 2.33 2.32 2.66 3 3 C-2.88803835 9.30861251 -9.49213277 14.45738108 -16.3125 19.70166016 C-18.67512573 21.51943268 -21.02456237 23.35400989 -23.375 25.1875 C-24.58303982 26.12537819 -25.79123955 27.06305076 -27 28 C-27.66 27.67 -28.32 27.34 -29 27 C-20.18012934 19.42545991 -11.18875691 12.12231983 -2 5 C-3.32 5.33 -4.64 5.66 -6 6 C-4 4 -2 2 0 0 Z " fill="#F5CA4B" transform="translate(59,117)"/>
<path d="M0 0 C-1.1516946 3.45508381 -1.98846674 4.10703624 -5 6 C-8.12942449 7.00709341 -10.97511375 7.10559061 -14.25 7.0625 C-15.14203125 7.05347656 -16.0340625 7.04445312 -16.953125 7.03515625 C-17.62859375 7.02355469 -18.3040625 7.01195312 -19 7 C-14.01537842 0.8898187 -7.7896499 -0.50255806 0 0 Z " fill="#B8730E" transform="translate(19,160)"/>
<path d="M0 0 C0.99 0 1.98 0 3 0 C1.47940093 3.88014936 -0.86078531 5.73906562 -4.125 8.25 C-5.03507813 8.95640625 -5.94515625 9.6628125 -6.8828125 10.390625 C-7.58148438 10.92171875 -8.28015625 11.4528125 -9 12 C-11 11 -11 11 -12 10 C-12.04063832 8.33382885 -12.042721 6.66611905 -12 5 C-8.33084735 3.37710556 -4.91385857 1.90319813 -1 1 C-0.67 0.67 -0.34 0.34 0 0 Z " fill="#E0B74D" transform="translate(183,14)"/>
<path d="M0 0 C0.66 0.33 1.32 0.66 2 1 C1.67 1.66 1.34 2.32 1 3 C3.97 3 6.94 3 10 3 C10 3.66 10 4.32 10 5 C5.545 5.495 5.545 5.495 1 6 C1.33 6.66 1.66 7.32 2 8 C0.3789897 8.69685498 -1.24696066 9.38222861 -2.875 10.0625 C-3.77992188 10.44535156 -4.68484375 10.82820313 -5.6171875 11.22265625 C-8 12 -8 12 -10 11 C-7.17477391 6.32751069 -4.32239956 3.34003602 0 0 Z " fill="#D5A434" transform="translate(178,24)"/>
<path d="M0 0 C0 0.66 0 1.32 0 2 C-3.28588457 3.53356101 -6.57953739 5.04964438 -9.875 6.5625 C-10.81214844 7.00013672 -11.74929687 7.43777344 -12.71484375 7.88867188 C-13.61074219 8.29794922 -14.50664063 8.70722656 -15.4296875 9.12890625 C-16.25710449 9.51119385 -17.08452148 9.89348145 -17.93701172 10.28735352 C-18.61779785 10.52252686 -19.29858398 10.7577002 -20 11 C-20.66 10.67 -21.32 10.34 -22 10 C-15.79147471 3.92944194 -8.87503029 0 0 0 Z " fill="#F2A07C" transform="translate(70,53)"/>
<path d="M0 0 C0 0.99 0 1.98 0 3 C-0.33 3.33 -0.66 3.66 -1 4 C-0.34 4.33 0.32 4.66 1 5 C-0.38788802 6.30020011 -1.78569258 7.5898193 -3.1875 8.875 C-3.96480469 9.59429687 -4.74210937 10.31359375 -5.54296875 11.0546875 C-7.97689776 12.9817092 -10.07536646 14.01300111 -13 15 C-12.53720834 10.55720005 -11.85646169 8.74503097 -8.41796875 5.75390625 C-5.65325396 3.76288571 -2.86447471 1.84418522 0 0 Z " fill="#CA932A" transform="translate(58,116)"/>
<path d="M0 0 C0.66 0.33 1.32 0.66 2 1 C-1.3 3.97 -4.6 6.94 -8 10 C-7.34 10.66 -6.68 11.32 -6 12 C-6.99 12.99 -7.98 13.98 -9 15 C-9.66 14.67 -10.32 14.34 -11 14 C-14.00259517 13.66781808 -14.00259517 13.66781808 -15.6875 15.5 C-16.3371875 16.2425 -16.3371875 16.2425 -17 17 C-17.66 16.67 -18.32 16.34 -19 16 C-16.4942233 11.25221257 -13.6574666 8.02210254 -8.5625 6.0625 C-5.08560869 4.62086214 -2.81616167 2.48870101 0 0 Z " fill="#E0BC5A" transform="translate(155,38)"/>
<path d="M0 0 C1.010625 0.28875 2.02125 0.5775 3.0625 0.875 C-4.63486842 8.78618421 -4.63486842 8.78618421 -8.6875 9.0625 C-9.43 9.000625 -10.1725 8.93875 -10.9375 8.875 C-10.9375 5.875 -10.9375 5.875 -9.65234375 4.234375 C-4.80748437 -0.15261855 -4.80748437 -0.15261855 0 0 Z " fill="#E74025" transform="translate(130.9375,60.125)"/>
<path d="M0 0 C1 3 1 3 0.109375 5.375 C-0.33921875 6.24125 -0.7878125 7.1075 -1.25 8 C-1.68828125 8.86625 -2.1265625 9.7325 -2.578125 10.625 C-3.8878619 12.8126924 -5.03206302 14.39179344 -7 16 C-7.66 16 -8.32 16 -9 16 C-8.09145974 9.77582121 -7.0431328 6.16058456 -2 2 C-1.34 1.34 -0.68 0.68 0 0 Z " fill="#F7E698" transform="translate(9,150)"/>
<path d="M0 0 C0.99 0 1.98 0 3 0 C2.78789666 3.71180848 2.04918847 4.94841209 -0.5625 7.6875 C-4.11296772 10.43457722 -7.63456792 11.17207323 -12 12 C-8.55384615 7.2 -8.55384615 7.2 -5.75 6.1875 C-4.88375 6.0946875 -4.88375 6.0946875 -4 6 C-4 5.34 -4 4.68 -4 4 C-3.34 4 -2.68 4 -2 4 C-2 3.34 -2 2.68 -2 2 C-1.34 2 -0.68 2 0 2 C0 1.34 0 0.68 0 0 Z " fill="#E0B858" transform="translate(30,153)"/>
<path d="M0 0 C-0.33 0.66 -0.66 1.32 -1 2 C-8.70892468 3.78027454 -17.15124 3.10178507 -25 3 C-25.33 2.34 -25.66 1.68 -26 1 C-17.3387414 -0.25981943 -8.72998757 -0.09020653 0 0 Z " fill="#E73120" transform="translate(110,139)"/>
<path d="M0 0 C0.66 0.66 1.32 1.32 2 2 C4.44012949 2.24287489 4.44012949 2.24287489 7.125 2.125 C8.03507812 2.10695312 8.94515625 2.08890625 9.8828125 2.0703125 C10.58148438 2.04710937 11.28015625 2.02390625 12 2 C2.57142857 10 2.57142857 10 -2 10 C-2 9.34 -2 8.68 -2 8 C-1.34 8 -0.68 8 0 8 C0 5.36 0 2.72 0 0 Z " fill="#EC613D" transform="translate(86,147)"/>
<path d="M0 0 C0.66 0 1.32 0 2 0 C2.33848652 1.89492006 2.67056911 3.79098466 3 5.6875 C3.185625 6.74324219 3.37125 7.79898437 3.5625 8.88671875 C3.95068074 11.64904062 4.08259976 14.21742043 4 17 C2.79371992 14.66785852 1.8345262 12.50357861 1 10 C0.01 10.495 0.01 10.495 -1 11 C-1.33 9.02 -1.66 7.04 -2 5 C-3.65 5.66 -5.3 6.32 -7 7 C-4.66666667 4.66666667 -2.33333333 2.33333333 0 0 Z " fill="#C99929" transform="translate(178,0)"/>
<path d="M0 0 C-1 3 -1 3 -3 4 C-5.0374763 4.22858114 -7.08040303 4.41024278 -9.125 4.5625 C-10.22070312 4.64628906 -11.31640625 4.73007813 -12.4453125 4.81640625 C-13.28835937 4.87699219 -14.13140625 4.93757812 -15 5 C-15.33 3.68 -15.66 2.36 -16 1 C-10.59255982 0.22750855 -5.46137814 -0.09752461 0 0 Z " fill="#E94D2D" transform="translate(102,145)"/>
<path d="M0 0 C0.66 0.99 1.32 1.98 2 3 C1.25 4.9375 1.25 4.9375 0 7 C-0.6084375 7.144375 -1.216875 7.28875 -1.84375 7.4375 C-4.46895051 8.12233492 -5.74893223 9.25384259 -7.75 11.0625 C-8.36359375 11.61035156 -8.9771875 12.15820312 -9.609375 12.72265625 C-10.06828125 13.14417969 -10.5271875 13.56570312 -11 14 C-11.66 13.67 -12.32 13.34 -13 13 C-9.17410588 8.04050763 -5.1404346 3.61734287 0 0 Z " fill="#D6AA44" transform="translate(45,126)"/>
<path d="M0 0 C0.99 0.33 1.98 0.66 3 1 C-7.14108911 11.43935644 -7.14108911 11.43935644 -12 12 C-12.33 11.34 -12.66 10.68 -13 10 C-10.90516399 8.29962669 -8.80057275 6.61493394 -6.6875 4.9375 C-6.09259766 4.45216797 -5.49769531 3.96683594 -4.88476562 3.46679688 C-3.3162821 2.23128751 -1.66163416 1.10706635 0 0 Z " fill="#C5841B" transform="translate(143,50)"/>
<path d="M0 0 C0.33 1.32 0.66 2.64 1 4 C1.66 4 2.32 4 3 4 C3 4.66 3 5.32 3 6 C2.34 6 1.68 6 1 6 C1 6.66 1 7.32 1 8 C0.34 8 -0.32 8 -1 8 C-1 8.66 -1 9.32 -1 10 C-2.96498322 11.38442 -4.97048465 12.71203834 -7 14 C-8.34175973 14.98866506 -9.67896002 15.9838154 -11 17 C-11.66 16.67 -12.32 16.34 -13 16 C-11.35 14.35 -9.7 12.7 -8 11 C-8.66 10.67 -9.32 10.34 -10 10 C-9.16855469 9.67128906 -9.16855469 9.67128906 -8.3203125 9.3359375 C-3.35136465 7.2212507 -3.35136465 7.2212507 -0.5 2.75 C-0.335 1.8425 -0.17 0.935 0 0 Z " fill="#C79329" transform="translate(27,149)"/>
<path d="M0 0 C-0.125 2.25 -0.125 2.25 -1 5 C-5.14537249 8.55317642 -8.60668997 9.5685352 -14 10 C-12.68 9.34 -11.36 8.68 -10 8 C-10 7.34 -10 6.68 -10 6 C-8.68 5.67 -7.36 5.34 -6 5 C-6 4.34 -6 3.68 -6 3 C-5.34 3 -4.68 3 -4 3 C-4 2.34 -4 1.68 -4 1 C-2 0 -2 0 0 0 Z " fill="#EFD67F" transform="translate(27,150)"/>
<path d="M0 0 C0.99 0 1.98 0 3 0 C2.07038578 1.15224028 1.1309875 2.29659176 0.1875 3.4375 C-0.59560547 4.39462891 -0.59560547 4.39462891 -1.39453125 5.37109375 C-3 7 -3 7 -6 8 C-6 7.01 -6 6.02 -6 5 C-7.9375006 2.81222534 -7.9375006 2.81222534 -10 1 C-6.16904304 -0.86075052 -4.09644494 -1.07801183 0 0 Z " fill="#E1783C" transform="translate(135,53)"/>
<path d="M0 0 C0.33 1.98 0.66 3.96 1 6 C-0.32 6.33 -1.64 6.66 -3 7 C-3 5.68 -3 4.36 -3 3 C-5.64 3.33 -8.28 3.66 -11 4 C-8.36255031 -1.84006718 -6.04918208 -1.00819701 0 0 Z " fill="#F1D574" transform="translate(26,140)"/>
<path d="M0 0 C0.33 0 0.66 0 1 0 C1.66 5.61 2.32 11.22 3 17 C2.01 17.33 1.02 17.66 0 18 C-0.39058179 15.75265248 -0.76192958 13.50195579 -1.125 11.25 C-1.33382812 9.99703125 -1.54265625 8.7440625 -1.7578125 7.453125 C-1.99507276 4.07025291 -1.8707364 2.74374672 0 0 Z " fill="#F5CF60" transform="translate(156,18)"/>
<path d="M0 0 C0.66 0.33 1.32 0.66 2 1 C1.34 2.98 0.68 4.96 0 7 C1.32 7 2.64 7 4 7 C4.33 5.68 4.66 4.36 5 3 C5 6.3 5 9.6 5 13 C3.68 13 2.36 13 1 13 C-0.49821059 9.62902617 -1 7.79557881 -1 4 C-1.66 3.67 -2.32 3.34 -3 3 C-2.01 2.01 -1.02 1.02 0 0 Z " fill="#DFB140" transform="translate(164,11)"/>
<path d="M0 0 C3.46709854 0.67834537 4.67880298 1.85948828 6.875 4.5625 C6.1325 4.211875 5.39 3.86125 4.625 3.5 C1.74270391 2.51739906 0.63194758 2.38095104 -2.125 3.5625 C-2.455 4.2225 -2.785 4.8825 -3.125 5.5625 C-5.6875 6.1875 -5.6875 6.1875 -8.125 6.5625 C-8.455 7.8825 -8.785 9.2025 -9.125 10.5625 C-9.785 10.5625 -10.445 10.5625 -11.125 10.5625 C-9.49045488 4.84159207 -5.95111987 1.07120158 0 0 Z " fill="#CD9C30" transform="translate(18.125,136.4375)"/>
<path d="M0 0 C-1.56022637 3.82964655 -3.87555571 6.32190489 -7 9 C-8.32 9 -9.64 9 -11 9 C-9.2307392 4.22299585 -5.2426655 0 0 0 Z " fill="#E83D25" transform="translate(101,45)"/>
<path d="M0 0 C0.99 0.33 1.98 0.66 3 1 C1.68 1.33 0.36 1.66 -1 2 C-1 2.66 -1 3.32 -1 4 C-1.66 4 -2.32 4 -3 4 C-3 4.66 -3 5.32 -3 6 C-4.32 6.33 -5.64 6.66 -7 7 C-7 7.66 -7 8.32 -7 9 C-8.25 10.625 -8.25 10.625 -10 12 C-11.32 12 -12.64 12 -14 12 C-14 11.34 -14 10.68 -14 10 C-11.76470988 8.17220002 -9.5366251 6.48118887 -7.1875 4.8125 C-6.22360352 4.09803711 -6.22360352 4.09803711 -5.24023438 3.36914062 C-3.55183876 2.16014439 -1.77922343 1.07084809 0 0 Z " fill="#DDB657" transform="translate(24,149)"/>
<path d="M0 0 C0.99 0.33 1.98 0.66 3 1 C1.17328621 3.53926173 -0.66877878 5.9050512 -3 8 C-6.375 8.4375 -6.375 8.4375 -9 8 C-2.92207792 1.75324675 -2.92207792 1.75324675 0 0 Z " fill="#C78A1E" transform="translate(154,41)"/>
<path d="M0 0 C0.12375 0.61875 0.2475 1.2375 0.375 1.875 C0.87197356 4.19120832 0.87197356 4.19120832 3 6 C-2.445 7.485 -2.445 7.485 -8 9 C-5.89851796 5.01824456 -3.63094642 2.64960955 0 0 Z " fill="#C9972A" transform="translate(187,17)"/>
<path d="M0 0 C0.99 0.99 1.98 1.98 3 3 C0.69 4.98 -1.62 6.96 -4 9 C-4.66 8.01 -5.32 7.02 -6 6 C-4.02 4.02 -2.04 2.04 0 0 Z " fill="#E82D1E" transform="translate(75,128)"/>
<path d="M0 0 C0.66 0.33 1.32 0.66 2 1 C2 4.63 2 8.26 2 12 C-0.61047801 10.694761 -0.68066423 9.64173426 -1.625 6.9375 C-1.88539062 6.20402344 -2.14578125 5.47054687 -2.4140625 4.71484375 C-2.60742188 4.14894531 -2.80078125 3.58304688 -3 3 C-2.01 2.01 -1.02 1.02 0 0 Z " fill="#F08557" transform="translate(84,143)"/>
<path d="M0 0 C0.33 0 0.66 0 1 0 C1 2.64 1 5.28 1 8 C1.66 8.33 2.32 8.66 3 9 C1.75 10.5625 1.75 10.5625 0 12 C-2.1875 11.6875 -2.1875 11.6875 -4 11 C-3.34 10.34 -2.68 9.68 -2 9 C-2.66 8.67 -3.32 8.34 -4 8 C-4 7.34 -4 6.68 -4 6 C-2.68 6 -1.36 6 0 6 C0 4.02 0 2.04 0 0 Z " fill="#E6BC4E" transform="translate(169,18)"/>
<path d="M0 0 C-2.9541184 1.5832978 -5.84447502 2.635437 -9.0625 3.5625 C-11.72779038 4.3360354 -14.36652518 5.12217506 -17 6 C-17.66 5.34 -18.32 4.68 -19 4 C-12.58874369 1.45760525 -6.97662552 -0.20519487 0 0 Z " fill="#E80810" transform="translate(118,40)"/>
<path d="M0 0 C0 1.98 0 3.96 0 6 C-1.65 6.66 -3.3 7.32 -5 8 C-5.33 6.35 -5.66 4.7 -6 3 C-2.25 0 -2.25 0 0 0 Z " fill="#BA8823" transform="translate(176,5)"/>
<path d="M0 0 C0.99 0.33 1.98 0.66 3 1 C2.04882866 2.1725131 1.08882991 3.33787015 0.125 4.5 C-0.40867187 5.1496875 -0.94234375 5.799375 -1.4921875 6.46875 C-1.98976563 6.9740625 -2.48734375 7.479375 -3 8 C-3.66 8 -4.32 8 -5 8 C-4.67 6.35 -4.34 4.7 -4 3 C-3.01 3 -2.02 3 -1 3 C-0.67 2.01 -0.34 1.02 0 0 Z " fill="#E61417" transform="translate(73,126)"/>
<path d="M0 0 C2.31 0.33 4.62 0.66 7 1 C5.375 3.0625 5.375 3.0625 3 5 C-0.25 4.75 -0.25 4.75 -3 4 C-2.01 2.68 -1.02 1.36 0 0 Z " fill="#E95B33" transform="translate(127,60)"/>
<path d="M0 0 C0 0.99 0 1.98 0 3 C-2.19909405 5.19909405 -4.56070254 7.07423885 -7 9 C-7.66 8.67 -8.32 8.34 -9 8 C-7.82255415 4.46766245 -7.04394359 4.13691925 -3.9375 2.3125 C-3.20402344 1.87550781 -2.47054688 1.43851563 -1.71484375 0.98828125 C-1.14894531 0.66214844 -0.58304688 0.33601562 0 0 Z " fill="#ECCE75" transform="translate(12,146)"/>
<path d="M0 0 C0.99 0.33 1.98 0.66 3 1 C1.63016497 4.16115776 1.0109362 4.9927092 -2 7 C-2.66 6.01 -3.32 5.02 -4 4 C-2.68 2.68 -1.36 1.36 0 0 Z " fill="#EA5C37" transform="translate(80,136)"/>
<path d="M0 0 C0.66 0 1.32 0 2 0 C2 2.31 2 4.62 2 7 C0.68 7 -0.64 7 -2 7 C-2.125 4.625 -2.125 4.625 -2 2 C-1.34 1.34 -0.68 0.68 0 0 Z " fill="#C6942A" transform="translate(166,11)"/>
<path d="M0 0 C0.66 0.33 1.32 0.66 2 1 C1.1875 4.4375 1.1875 4.4375 0 8 C-0.99 8.33 -1.98 8.66 -3 9 C-2.5020163 5.26512223 -2.12508244 3.18762365 0 0 Z " fill="#F2A17F" transform="translate(43,59)"/>
<path d="M0 0 C1.65 0 3.3 0 5 0 C2.03 3.96 2.03 3.96 -1 8 C-2.2077558 4.37673261 -1.54311128 3.35853631 0 0 Z " fill="#FAD4C1" transform="translate(44,62)"/>
<path d="M0 0 C0.99 0.33 1.98 0.66 3 1 C0.6875 3.5 0.6875 3.5 -2 6 C-2.99 6 -3.98 6 -5 6 C-3.35 4.02 -1.7 2.04 0 0 Z " fill="#E84126" transform="translate(77,131)"/>
<path d="M0 0 C0.33 0.66 0.66 1.32 1 2 C1.66 2.33 2.32 2.66 3 3 C1.35 4.32 -0.3 5.64 -2 7 C-2 6.01 -2 5.02 -2 4 C-3.98 4.99 -3.98 4.99 -6 6 C-4 4 -2 2 0 0 Z " fill="#E2B84F" transform="translate(59,117)"/>
<path d="M0 0 C2.125 0.375 2.125 0.375 4 1 C3.67 1.99 3.34 2.98 3 4 C2.34 4 1.68 4 1 4 C1 4.66 1 5.32 1 6 C0.01 6 -0.98 6 -2 6 C-2 2 -2 2 0 0 Z " fill="#D8A938" transform="translate(190,25)"/>
<path d="M0 0 C0.33 0.99 0.66 1.98 1 3 C-1.42797311 5.42797311 -4.1299269 7.1282132 -7 9 C-6.82374165 6.62051228 -6.30280227 5.29774151 -4.59765625 3.62109375 C-3.09350908 2.37884514 -1.54870149 1.18623944 0 0 Z " fill="#F4E08E" transform="translate(9,150)"/>
<path d="M0 0 C1.32 0 2.64 0 4 0 C3.34 1.32 2.68 2.64 2 4 C0.35 4 -1.3 4 -3 4 C-1.75 2 -1.75 2 0 0 Z " fill="#AF6404" transform="translate(7,162)"/>
<path d="M0 0 C1.65 0 3.3 0 5 0 C3.86695008 3.39914975 2.87481525 4.05254451 0 6 C-0.66 5.67 -1.32 5.34 -2 5 C-1.34 3.35 -0.68 1.7 0 0 Z " fill="#C08017" transform="translate(14,160)"/>
<path d="M0 0 C0.33 0.66 0.66 1.32 1 2 C-1.38957269 5.24299151 -3.2047869 7.50902342 -7 9 C-5.59257936 5.48144841 -4.33533477 4.61387166 -1 3 C-0.67 2.01 -0.34 1.02 0 0 Z " fill="#F4E092" transform="translate(32,154)"/>
<path d="M0 0 C0 3 0 3 -1.3125 4.38671875 C-2.875 5.59114583 -4.4375 6.79557292 -6 8 C-6 5 -6 5 -4.6875 3.61328125 C-3.125 2.40885417 -1.5625 1.20442708 0 0 Z " fill="#C9952A" transform="translate(35,134)"/>
<path d="M0 0 C0.66 0.33 1.32 0.66 2 1 C2.625 3.5625 2.625 3.5625 3 6 C1.35 6 -0.3 6 -2 6 C-1.34 4.02 -0.68 2.04 0 0 Z " fill="#BF8417" transform="translate(30,147)"/>
</svg>
